HIERARCHY
ROOT Hips
{
	OFFSET 0.00000 0.00000 0.00000
	CHANNELS 6 Xposition Yposition Zposition Zrotation Yrotation Xrotation 
	JOINT LHipJoint
	{
		OFFSET 0 0 0
		CHANNELS 3 Zrotation Yrotation Xrotation
		JOINT LeftUpLeg
		{
			OFFSET 1.41496 -1.84582 0.78394
			CHANNELS 3 Zrotation Yrotation Xrotation
			JOINT LeftLeg
			{
				OFFSET 2.58040 -7.08960 0.00000
				CHANNELS 3 Zrotation Yrotation Xrotation
				JOINT LeftFoot
				{
					OFFSET 2.64719 -7.27309 0.00000
					CHANNELS 3 Zrotation Yrotation Xrotation
					JOINT LeftToeBase
					{
						OFFSET 0.20718 -0.56921 2.20259
						CHANNELS 3 Zrotation Yrotation Xrotation
						End Site
						{
							OFFSET 0.00000 -0.00000 1.14243
						}
					}
				}
			}
		}
	}
	JOINT RHipJoint
	{
		OFFSET 0 0 0
		CHANNELS 3 Zrotation Yrotation Xrotation
		JOINT RightUpLeg
		{
			OFFSET -1.40551 -1.84582 0.78394
			CHANNELS 3 Zrotation Yrotation Xrotation
			JOINT RightLeg
			{
				OFFSET -2.56572 -7.04926 0.00000
				CHANNELS 3 Zrotation Yrotation Xrotation
				JOINT RightFoot
				{
					OFFSET -2.57974 -7.08778 0.00000
					CHANNELS 3 Zrotation Yrotation Xrotation
					JOINT RightToeBase
					{
						OFFSET -0.26704 -0.73369 2.20815
						CHANNELS 3 Zrotation Yrotation Xrotation
						End Site
						{
							OFFSET -0.00000 -0.00000 1.16246
						}
					}
				}
			}
		}
	}
	JOINT LowerBack
	{
		OFFSET 0 0 0
		CHANNELS 3 Zrotation Yrotation Xrotation
		JOINT Spine
		{
			OFFSET -0.04690 2.05196 -0.07017
			CHANNELS 3 Zrotation Yrotation Xrotation
			JOINT Spine1
			{
				OFFSET 0.04085 2.05260 0.00800
				CHANNELS 3 Zrotation Yrotation Xrotation
				JOINT Neck
				{
					OFFSET 0 0 0
					CHANNELS 3 Zrotation Yrotation Xrotation
					JOINT Neck1
					{
						OFFSET -0.03582 1.80995 0.19301
						CHANNELS 3 Zrotation Yrotation Xrotation
						JOINT Head
						{
							OFFSET 0.00952 1.80195 -0.36389
							CHANNELS 3 Zrotation Yrotation Xrotation
							End Site
							{
								OFFSET 0.00392 1.85062 -0.14494
							}
						}
					}
				}
				JOINT LeftShoulder
				{
					OFFSET 0 0 0
					CHANNELS 3 Zrotation Yrotation Xrotation
					JOINT LeftArm
					{
						OFFSET 3.55224 1.39726 -0.13667
						CHANNELS 3 Zrotation Yrotation Xrotation
						JOINT LeftForeArm
						{
							OFFSET 5.14507 -0.00000 -0.00000
							CHANNELS 3 Zrotation Yrotation Xrotation
							JOINT LeftHand
							{
								OFFSET 3.50646 -0.00000 0.00000
								CHANNELS 3 Zrotation Yrotation Xrotation
								JOINT LeftFingerBase
								{
									OFFSET 0 0 0
									CHANNELS 3 Zrotation Yrotation Xrotation
									JOINT LeftHandIndex1
									{
										OFFSET 0.62997 -0.00000 0.00000
										CHANNELS 3 Zrotation Yrotation Xrotation
										End Site
										{
											OFFSET 0.50790 -0.00000 0.00000
										}
									}
								}
								JOINT LThumb
								{
									OFFSET 0 0 0
									CHANNELS 3 Zrotation Yrotation Xrotation
									End Site
									{
										OFFSET 0.51565 -0.00000 0.51565
									}
								}
							}
						}
					}
				}
				JOINT RightShoulder
				{
					OFFSET 0 0 0
					CHANNELS 3 Zrotation Yrotation Xrotation
					JOINT RightArm
					{
						OFFSET -3.06467 1.61290 -0.28813
						CHANNELS 3 Zrotation Yrotation Xrotation
						JOINT RightForeArm
						{
							OFFSET -5.23200 -0.00000 -0.00000
							CHANNELS 3 Zrotation Yrotation Xrotation
							JOINT RightHand
							{
								OFFSET -3.65641 -0.00000 0.00000
								CHANNELS 3 Zrotation Yrotation Xrotation
								JOINT RightFingerBase
								{
									OFFSET 0 0 0
									CHANNELS 3 Zrotation Yrotation Xrotation
									JOINT RightHandIndex1
									{
										OFFSET -0.65681 -0.00000 0.00000
										CHANNELS 3 Zrotation Yrotation Xrotation
										End Site
										{
											OFFSET -0.52953 -0.00000 0.00000
										}
									}
								}
								JOINT RThumb
								{
									OFFSET 0 0 0
									CHANNELS 3 Zrotation Yrotation Xrotation
									End Site
									{
										OFFSET -0.53762 -0.00000 0.53762
									}
								}
							}
						}
					}
				}
			}
		}
	}
}
MOTION
Frames: 12
Frame Time: 0.0555556
0.00 0.00 0.00 0.6944 4.9863 10.5970 0.0000 0.0000 0.0000 -22.4328 -13.4042 -38.1252 7.3723 15.6376 50.2688 0.0712 -15.4113 -11.5774 0.1210 2.2428 6.1771 0.0000 0.0000 0.0000 13.8475 -3.2207 -29.7854 -24.3643 -19.5371 102.8557 -0.2749 -2.9159 -11.4176 -2.1840 9.2393 -26.5468 -2.2770 -0.5658 15.7141 0.6049 -1.0979 0.8249 2.1823 -0.4347 -7.8876 -1.9161 -2.3975 -17.7898 1.8843 -3.0922 13.6192 0.5798 -1.4059 7.1496 0.0000 0.0000 0.0000 -87.3353 17.2705 52.5207 134.8886 -50.8230 -97.6749 -0.0000 0.0000 -13.5709 20.6341 -17.2643 -6.3766 -7.1250 0.0000 -0.0000 -4.8056 11.6588 3.7489 0.0000 0.0000 0.0000 87.7763 -28.6351 35.3218 -85.9477 59.9379 -56.4913 0.0000 0.0000 1.8812 -30.2514 8.9465 -5.1824 7.1250 -0.0000 -0.0000 -2.3785 -19.6559 -1.4411
0.00 0.00 0.00 3.4257 4.5249 10.8122 0.0000 0.0000 0.0000 -27.1610 -11.3592 -20.1870 5.4306 13.8528 42.6511 0.8190 -12.8929 -17.3037 0.0348 -1.2038 -3.3097 0.0000 0.0000 0.0000 3.7697 1.6640 -63.5550 -28.3880 -18.2218 115.2465 -1.0386 2.9843 -18.4941 -2.4785 9.7987 -28.3274 -3.9998 -3.0474 14.7210 0.1961 -4.7155 -0.3354 3.4712 -2.1005 -8.2803 -0.0817 -0.0367 -18.3603 -0.2352 0.0166 15.5614 -0.0629 -0.0215 7.8258 0.0000 -0.0000 0.0000 -87.3684 2.6348 56.3866 146.3878 -43.7953 -106.1561 -0.0000 0.0000 -15.9776 21.6639 -17.5452 -6.8283 -7.1250 0.0000 -0.0000 -4.1433 11.2297 3.2658 0.0000 -0.0000 0.0000 81.9277 -43.4898 32.2044 -102.3987 59.4111 -70.7164 0.0000 -0.0000 -0.4367 -29.9571 10.8407 -6.1867 7.1250 -0.0000 -0.0000 -2.0081 -17.5210 -1.3112
0.00 0.00 0.00 2.5839 1.4939 10.0672 0.0000 0.0000 0.0000 -27.5809 -8.7548 -10.2843 3.7552 11.8273 35.1236 0.0561 -8.5878 -7.0540 0.6312 -5.0835 -14.1469 0.0000 0.0000 0.0000 2.9910 9.4293 -70.9782 -24.0758 -19.5970 101.9942 -1.2053 0.9042 -20.4798 -2.9681 10.6432 -31.0856 -3.1448 -3.3509 14.4000 0.9078 -4.9002 -0.2860 3.7629 -2.2210 -8.0359 0.9412 1.4556 -18.5536 -2.2561 2.1702 15.6715 -0.6427 0.8551 7.9345 0.0000 0.0000 0.0000 -83.9913 3.2422 60.4861 150.1778 -40.7406 -108.7066 -0.0000 0.0000 -16.6284 20.2569 -18.1061 -6.5429 -7.1250 0.0000 -0.0000 -5.1045 10.8247 4.0717 0.0000 0.0000 0.0000 77.8532 -46.9154 33.7831 -109.6471 58.4900 -76.9286 0.0000 -0.0000 -0.7973 -28.9022 11.5738 -6.3205 7.1250 -0.0000 -0.0000 -1.2099 -16.8152 -0.8083
0.00 0.00 0.00 3.0760 -1.1121 8.9284 0.0000 0.0000 0.0000 -28.4626 -6.4511 -8.0053 5.1859 13.5902 41.6199 0.4736 -1.1469 13.4650 0.2091 -2.9444 -8.1239 0.0000 0.0000 0.0000 5.6782 13.6305 -66.1242 -12.2221 -18.4830 66.6910 -0.6793 1.9729 -15.0222 -3.8449 11.9511 -35.5591 -4.1691 -3.0071 14.5966 1.7230 -4.5409 0.5423 5.1113 -2.0399 -7.1336 1.4412 2.5128 -19.4688 -3.2560 3.6509 15.1665 -0.8684 1.4810 7.9794 0.0000 0.0000 0.0000 -81.3999 10.9201 63.2393 142.6257 -46.4350 -103.4893 -0.0000 0.0000 -10.7122 22.5524 -17.9023 -7.2748 -7.1250 0.0000 -0.0000 -3.5843 10.7304 2.8600 0.0000 0.0000 0.0000 80.5109 -41.6927 29.9402 -107.7734 58.7721 -75.3287 0.0000 -0.0000 -1.1529 -27.5123 9.2961 -4.8092 7.1250 -0.0000 -0.0000 -0.4029 -19.5232 -0.2451
0.00 0.00 0.00 -5.4275 3.2157 2.5357 0.0000 0.0000 0.0000 -11.8457 -7.0317 -34.0147 21.4930 19.9465 94.3690 -0.0541 -5.1705 -1.4411 0.0752 -1.7696 -4.8693 0.0000 0.0000 0.0000 24.6491 7.2249 -38.5571 -9.0267 -16.8249 56.1825 -0.6979 -1.5625 -16.4212 -1.4191 7.5336 -21.3061 2.3971 -1.2694 19.2308 4.7675 -0.7227 2.1319 4.0120 -0.3404 -8.4410 -0.7783 -0.3246 -18.5146 -2.5794 0.2246 13.6973 -0.6945 -0.1828 7.2424 -0.0000 -0.0000 0.0000 -82.1886 20.6702 54.6255 114.1012 -57.6872 -80.7102 -0.0000 0.0000 -11.5884 24.0615 -16.8658 -7.3815 -7.1250 0.0000 -0.0000 -2.5088 11.6260 1.9537 -0.0000 -0.0000 0.0000 87.3238 -23.8288 24.6288 -95.0496 59.9034 -64.3716 0.0000 -0.0000 -4.4116 -28.1661 4.3587 -2.3302 7.1250 -0.0000 -0.0000 -1.1399 -25.0383 -0.5505
0.00 0.00 0.00 -8.9367 5.2354 4.4266 0.0000 0.0000 0.0000 -1.1849 -13.2866 -65.7658 20.4642 19.9948 91.3574 -0.3978 -14.1897 -4.2530 0.2743 -3.3688 -9.3074 0.0000 0.0000 0.0000 33.8979 -2.5439 -16.6973 -6.2500 -14.6664 45.9772 -1.9721 -4.5612 -28.4760 -2.5289 9.8902 -28.6220 4.7976 1.6317 16.9529 4.9929 3.5342 0.9357 1.8275 1.6208 -8.5584 -3.3558 -3.3484 -18.9021 -0.7411 -3.5201 11.3648 -0.0889 -1.9154 6.5857 0.0000 -0.0000 0.0000 -74.0656 34.8405 52.6817 123.4327 -55.3236 -88.4990 -0.0000 0.0000 -11.3689 22.8903 -17.6821 -7.3078 -7.1250 0.0000 -0.0000 -3.3456 10.9173 2.6560 0.0000 -0.0000 0.0000 84.2539 -14.3795 35.0226 -122.0069 55.7510 -87.3234 0.0000 -0.0000 -5.0361 -28.8142 4.8787 -2.6785 7.1250 -0.0000 -0.0000 -1.6012 -24.4158 -0.7964
0.00 0.00 0.00 4.3432 9.4720 9.0538 0.0000 0.0000 0.0000 -24.1403 -9.5345 -23.0506 8.4978 16.4734 54.3365 1.0416 -23.7444 -23.2809 0.5591 4.7893 13.3085 0.0000 0.0000 0.0000 11.2271 -0.8524 -51.1999 -21.8735 -19.9156 95.4852 -0.0687 -7.2868 -11.8177 -0.9463 6.1954 -17.3523 -6.8543 -1.6744 14.8511 -1.4134 -3.5720 -0.9044 3.1348 -1.4201 -9.0164 -2.4975 -2.5190 -19.1526 3.8276 -3.3952 12.6875 1.2648 -1.3915 7.1277 0.0000 0.0000 0.0000 -85.7460 2.1834 52.9597 135.1858 -50.6771 -97.9051 -0.0000 0.0000 -14.4424 19.9762 -16.7501 -5.9805 -7.1250 0.0000 -0.0000 -5.2135 12.2783 4.0025 0.0000 0.0000 0.0000 87.5849 -31.4223 29.8904 -54.3034 54.5903 -29.6474 0.0000 -0.0000 -5.6111 -21.3057 4.4981 -1.7519 7.1250 -0.0000 -0.0000 4.0175 -25.1523 1.9335
0.00 0.00 0.00 6.8933 9.8355 10.7804 0.0000 0.0000 0.0000 -25.2252 -5.3614 -9.5425 7.0108 15.3410 48.9152 0.9010 -28.5871 -25.0916 0.3430 3.7632 10.4115 0.0000 0.0000 0.0000 7.2869 3.0598 -63.1452 -17.0088 -19.7841 81.2240 -0.0702 -7.1873 -11.7218 -1.2680 7.1373 -20.1228 -9.4948 -2.7689 13.2383 -1.4502 -5.3486 -1.4566 4.8214 -2.1758 -8.3039 -2.4205 -2.1704 -19.7402 3.1590 -2.8453 13.7351 1.0939 -1.1751 7.5400 0.0000 -0.0000 0.0000 -86.3603 -8.1533 51.0398 146.0225 -44.0681 -105.9026 -0.0000 0.0000 -15.1542 21.9733 -16.2794 -6.4530 -7.1250 0.0000 -0.0000 -3.8558 12.5301 2.9342 0.0000 -0.0000 0.0000 84.4179 -40.9871 24.6293 -49.2719 52.6976 -25.5939 0.0000 -0.0000 -5.8206 -21.8610 5.8557 -2.3440 7.1250 -0.0000 -0.0000 3.5954 -23.6762 1.8525
0.00 0.00 0.00 7.7095 8.7539 10.6728 0.0000 0.0000 0.0000 -25.7706 -2.3119 0.8636 5.4421 13.8650 42.6993 -0.0052 -27.7156 -19.5699 0.0287 1.0932 3.0052 0.0000 0.0000 0.0000 7.3345 3.9217 -62.1737 -11.9676 -18.3769 65.8860 0.1095 -6.8215 -6.2148 -1.5371 7.8268 -22.1894 -9.7459 -3.3975 11.2806 -1.2260 -5.9922 -1.7050 5.1495 -2.5304 -7.3115 -1.9296 -1.3087 -19.7494 1.3195 -1.4886 15.0179 0.5696 -0.6845 7.9083 0.0000 0.0000 0.0000 -85.2174 -7.8724 48.4900 151.4693 -39.6003 -109.5397 -0.0000 0.0000 -17.3981 21.7695 -16.2417 -6.3733 -7.1250 0.0000 -0.0000 -3.9895 12.5954 3.0311 0.0000 0.0000 0.0000 80.7187 -48.2014 26.8517 -57.6137 55.6398 -32.3632 0.0000 -0.0000 -8.3039 -20.9294 7.1160 -2.7125 7.1250 -0.0000 -0.0000 4.2834 -22.3737 2.3369
0.00 0.00 0.00 9.4437 7.4579 10.4147 0.0000 0.0000 0.0000 -27.5903 -1.6636 10.4771 4.2808 12.5250 37.6155 -1.5239 -24.6061 -4.2250 0.0332 -1.1762 -3.2338 0.0000 0.0000 0.0000 6.9576 4.1481 -57.0909 -7.2666 -15.5523 49.8756 0.1351 -8.9765 3.3224 -1.5986 7.9746 -22.6370 -10.6845 -3.9823 8.7519 -1.3522 -6.6155 -2.1439 5.3907 -2.8637 -6.1660 -1.3919 -0.3632 -19.1425 -0.3201 -0.0343 17.0186 0.1153 -0.1439 8.4528 -0.0000 -0.0000 0.0000 -82.8279 -2.9287 46.7779 154.0877 -37.1219 -111.1654 -0.0000 0.0000 -15.1420 20.5662 -16.8624 -6.2114 -7.1250 0.0000 -0.0000 -4.8275 12.0892 3.7229 -0.0000 -0.0000 0.0000 78.1860 -54.4476 28.4021 -67.8791 58.0678 -40.9670 0.0000 -0.0000 -9.7581 -20.1498 8.3928 -3.0657 7.1250 -0.0000 -0.0000 4.8546 -21.0621 2.7955
0.00 0.00 0.00 10.5457 6.8426 10.6172 0.0000 0.0000 0.0000 -28.4572 -2.4205 14.0579 4.1920 12.4116 37.2040 -1.2461 -19.7760 12.1958 0.0527 -1.4814 -4.0745 0.0000 0.0000 0.0000 6.4281 5.1746 -51.5132 -4.7159 -13.0566 39.5806 -0.0523 -11.0044 8.4874 -1.5498 7.8576 -22.2823 -11.5029 -4.2967 6.5200 -1.2920 -6.8566 -2.7163 5.7276 -2.9868 -5.3767 -1.0596 0.0634 -18.5136 -1.3998 0.6996 18.7035 -0.2129 0.0932 8.9199 -0.0000 0.0000 0.0000 -80.9352 2.6570 46.8636 153.7346 -37.4696 -110.9514 -0.0000 0.0000 -11.4931 19.7776 -17.2380 -6.0824 -7.1250 0.0000 -0.0000 -5.3708 11.7921 4.1788 -0.0000 0.0000 0.0000 77.6004 -57.8994 28.1286 -75.3727 59.1759 -47.3674 0.0000 -0.0000 -10.4076 -19.3872 9.0702 -3.1753 7.1250 -0.0000 -0.0000 5.4064 -20.3944 3.1975
0.00 0.00 0.00 10.3643 6.9420 10.9748 0.0000 0.0000 0.0000 -27.0544 -3.6697 12.5800 6.0639 14.4900 45.2376 1.4823 -12.4916 30.4928 0.1753 2.6969 7.4360 0.0000 0.0000 0.0000 7.7661 6.7022 -43.5061 -3.0647 -10.7991 31.6053 -0.0628 -14.5755 10.9366 -1.2946 7.2090 -20.3361 -11.2405 -4.5039 3.8919 -0.6911 -6.7819 -3.5008 5.9911 -2.9721 -4.6837 -0.7176 0.1713 -17.7157 -2.6227 1.0583 20.4572 -0.6481 0.1329 9.3953 0.0000 0.0000 0.0000 -78.0952 10.3094 48.7159 150.3455 -40.5954 -108.8159 -0.0000 0.0000 -8.3447 19.6510 -16.9107 -5.9300 -7.1250 0.0000 -0.0000 -5.4378 12.1491 4.1910 0.0000 0.0000 0.0000 78.6719 -59.8537 25.5193 -83.6906 59.8490 -54.5387 0.0000 -0.0000 -9.2916 -18.2667 9.3793 -3.0791 7.1250 -0.0000 -0.0000 6.2093 -20.1404 3.7133
